<mxfile host="app.diagrams.net" modified="2025-01-27T12:00:00.000Z" agent="5.0" version="22.1.0" etag="draw-id" type="device">
  <diagram name="Multi-Region Deployment" id="multi-region-deployment">
    <mxGraphModel dx="1600" dy="900" grid="1" gridSize="10" guides="1" tooltips="1" connect="1" arrows="1" fold="1" page="1" pageScale="1" pageWidth="1600" pageHeight="900" math="0" shadow="0">
      <root>
        <mxCell id="0" />
        <mxCell id="1" parent="0" />
        
        <mxCell id="title" value="Fraud Switch - Multi-Region Deployment Architecture" style="text;html=1;strokeColor=none;fillColor=none;align=center;verticalAlign=middle;whiteSpace=wrap;rounded=0;fontSize=24;fontStyle=1" vertex="1" parent="1">
          <mxGeometry x="400" y="20" width="800" height="40" as="geometry" />
        </mxCell>
        
        <mxCell id="subtitle" value="Regional Isolation: No Cross-Region Failover | Independent Data Residency" style="text;html=1;strokeColor=none;fillColor=none;align=center;verticalAlign=middle;whiteSpace=wrap;rounded=0;fontSize=14;fontColor=#CC0000;fontStyle=1" vertex="1" parent="1">
          <mxGeometry x="400" y="65" width="800" height="25" as="geometry" />
        </mxCell>
        
        <mxCell id="legend-box" value="" style="rounded=1;whiteSpace=wrap;html=1;fillColor=#f5f5f5;strokeColor=#666666;dashed=1;" vertex="1" parent="1">
          <mxGeometry x="40" y="110" width="280" height="100" as="geometry" />
        </mxCell>
        <mxCell id="legend-title" value="Legend" style="text;html=1;strokeColor=none;fillColor=none;align=left;verticalAlign=middle;whiteSpace=wrap;rounded=0;fontSize=14;fontStyle=1" vertex="1" parent="1">
          <mxGeometry x="50" y="120" width="100" height="20" as="geometry" />
        </mxCell>
        <mxCell id="legend-compute" value="Compute (EKS)" style="text;html=1;strokeColor=none;fillColor=none;align=left;verticalAlign=middle;whiteSpace=wrap;rounded=0;fontSize=11;" vertex="1" parent="1">
          <mxGeometry x="90" y="145" width="150" height="20" as="geometry" />
        </mxCell>
        <mxCell id="legend-data" value="Data Stores" style="text;html=1;strokeColor=none;fillColor=none;align=left;verticalAlign=middle;whiteSpace=wrap;rounded=0;fontSize=11;" vertex="1" parent="1">
          <mxGeometry x="90" y="170" width="150" height="20" as="geometry" />
        </mxCell>
        <mxCell id="legend-compute-box" value="" style="rounded=1;whiteSpace=wrap;html=1;fillColor=#dae8fc;strokeColor=#6c8ebf;strokeWidth=2;" vertex="1" parent="1">
          <mxGeometry x="50" y="140" width="30" height="30" as="geometry" />
        </mxCell>
        <mxCell id="legend-data-box" value="" style="shape=cylinder3;whiteSpace=wrap;html=1;boundedLbl=1;backgroundOutline=1;size=8;fillColor=#d5e8d4;strokeColor=#82b366;" vertex="1" parent="1">
          <mxGeometry x="50" y="165" width="30" height="30" as="geometry" />
        </mxCell>

        <mxCell id="isolation-note" value="CRITICAL: Complete Regional Isolation&#xa;&#xa;• No data replication between regions&#xa;• Independent failure domains&#xa;• Regulatory compliance (UK GDPR)&#xa;• Separate KMS keys per region" style="text;html=1;strokeColor=#d79b00;fillColor=#ffe6cc;align=left;verticalAlign=top;whiteSpace=wrap;rounded=1;fontSize=11;fontStyle=1" vertex="1" parent="1">
          <mxGeometry x="40" y="230" width="280" height="130" as="geometry" />
        </mxCell>

        <mxCell id="us-region-box" value="" style="rounded=1;whiteSpace=wrap;html=1;fillColor=#e1d5e7;strokeColor=#9673a6;strokeWidth=4;opacity=20;" vertex="1" parent="1">
          <mxGeometry x="380" y="130" width="560" height="730" as="geometry" />
        </mxCell>
        
        <mxCell id="us-region-label" value="US-OHIO REGION (us-east-2)" style="text;html=1;strokeColor=none;fillColor=none;align=center;verticalAlign=middle;whiteSpace=wrap;rounded=0;fontSize=18;fontStyle=1;fontColor=#9673a6;" vertex="1" parent="1">
          <mxGeometry x="490" y="140" width="340" height="30" as="geometry" />
        </mxCell>

        <mxCell id="us-az1-box" value="" style="rounded=1;whiteSpace=wrap;html=1;fillColor=#fff2cc;strokeColor=#d6b656;strokeWidth=2;dashed=1;" vertex="1" parent="1">
          <mxGeometry x="400" y="200" width="160" height="280" as="geometry" />
        </mxCell>
        <mxCell id="us-az1-label" value="AZ-1 (us-east-2a)" style="text;html=1;strokeColor=none;fillColor=none;align=center;verticalAlign=middle;whiteSpace=wrap;rounded=0;fontSize=12;fontStyle=1" vertex="1" parent="1">
          <mxGeometry x="410" y="210" width="140" height="20" as="geometry" />
        </mxCell>

        <mxCell id="us-az2-box" value="" style="rounded=1;whiteSpace=wrap;html=1;fillColor=#fff2cc;strokeColor=#d6b656;strokeWidth=2;dashed=1;" vertex="1" parent="1">
          <mxGeometry x="580" y="200" width="160" height="280" as="geometry" />
        </mxCell>
        <mxCell id="us-az2-label" value="AZ-2 (us-east-2b)" style="text;html=1;strokeColor=none;fillColor=none;align=center;verticalAlign=middle;whiteSpace=wrap;rounded=0;fontSize=12;fontStyle=1" vertex="1" parent="1">
          <mxGeometry x="590" y="210" width="140" height="20" as="geometry" />
        </mxCell>

        <mxCell id="us-az3-box" value="" style="rounded=1;whiteSpace=wrap;html=1;fillColor=#fff2cc;strokeColor=#d6b656;strokeWidth=2;dashed=1;" vertex="1" parent="1">
          <mxGeometry x="760" y="200" width="160" height="280" as="geometry" />
        </mxCell>
        <mxCell id="us-az3-label" value="AZ-3 (us-east-2c)" style="text;html=1;strokeColor=none;fillColor=none;align=center;verticalAlign=middle;whiteSpace=wrap;rounded=0;fontSize=12;fontStyle=1" vertex="1" parent="1">
          <mxGeometry x="770" y="210" width="140" height="20" as="geometry" />
        </mxCell>

        <mxCell id="us-eks-az1" value="EKS Cluster&#xa;&#xa;Fraud Router: 20&#xa;Adapters: 20&#xa;Rules: 7&#xa;BIN: 3&#xa;Tokenization: 7&#xa;Issuer Data: 3" style="rounded=1;whiteSpace=wrap;html=1;fillColor=#dae8fc;strokeColor=#6c8ebf;verticalAlign=top;fontSize=10;fontStyle=1;strokeWidth=2;" vertex="1" parent="1">
          <mxGeometry x="415" y="240" width="130" height="150" as="geometry" />
        </mxCell>

        <mxCell id="us-eks-az2" value="EKS Cluster&#xa;&#xa;Fraud Router: 20&#xa;Adapters: 20&#xa;Rules: 7&#xa;BIN: 3&#xa;Tokenization: 7&#xa;Issuer Data: 3" style="rounded=1;whiteSpace=wrap;html=1;fillColor=#dae8fc;strokeColor=#6c8ebf;verticalAlign=top;fontSize=10;fontStyle=1;strokeWidth=2;" vertex="1" parent="1">
          <mxGeometry x="595" y="240" width="130" height="150" as="geometry" />
        </mxCell>

        <mxCell id="us-eks-az3" value="EKS Cluster&#xa;&#xa;Fraud Router: 20&#xa;Adapters: 20&#xa;Rules: 7&#xa;BIN: 3&#xa;Tokenization: 7&#xa;Issuer Data: 3" style="rounded=1;whiteSpace=wrap;html=1;fillColor=#dae8fc;strokeColor=#6c8ebf;verticalAlign=top;fontSize=10;fontStyle=1;strokeWidth=2;" vertex="1" parent="1">
          <mxGeometry x="775" y="240" width="130" height="150" as="geometry" />
        </mxCell>

        <mxCell id="us-redis-az1" value="ElastiCache&#xa;Redis" style="rounded=1;whiteSpace=wrap;html=1;fillColor=#dae8fc;strokeColor=#6c8ebf;fontSize=10;fontStyle=1;strokeWidth=2;" vertex="1" parent="1">
          <mxGeometry x="415" y="410" width="130" height="50" as="geometry" />
        </mxCell>

        <mxCell id="us-redis-az2" value="ElastiCache&#xa;Redis" style="rounded=1;whiteSpace=wrap;html=1;fillColor=#dae8fc;strokeColor=#6c8ebf;fontSize=10;fontStyle=1;strokeWidth=2;" vertex="1" parent="1">
          <mxGeometry x="595" y="410" width="130" height="50" as="geometry" />
        </mxCell>

        <mxCell id="us-redis-az3" value="ElastiCache&#xa;Redis" style="rounded=1;whiteSpace=wrap;html=1;fillColor=#dae8fc;strokeColor=#6c8ebf;fontSize=10;fontStyle=1;strokeWidth=2;" vertex="1" parent="1">
          <mxGeometry x="775" y="410" width="130" height="50" as="geometry" />
        </mxCell>

        <mxCell id="us-data-layer-label" value="Regional Data Stores" style="text;html=1;strokeColor=none;fillColor=none;align=center;verticalAlign=middle;whiteSpace=wrap;rounded=0;fontSize=14;fontStyle=1;fontColor=#006600;" vertex="1" parent="1">
          <mxGeometry x="520" y="500" width="280" height="30" as="geometry" />
        </mxCell>

        <mxCell id="us-aurora" value="" style="shape=cylinder3;whiteSpace=wrap;html=1;boundedLbl=1;backgroundOutline=1;size=15;fillColor=#d5e8d4;strokeColor=#82b366;strokeWidth=2;" vertex="1" parent="1">
          <mxGeometry x="430" y="545" width="80" height="100" as="geometry" />
        </mxCell>
        <mxCell id="us-aurora-label" value="Aurora&#xa;PostgreSQL&#xa;&#xa;Multi-AZ&#xa;Writer + Reader" style="text;html=1;strokeColor=none;fillColor=none;align=center;verticalAlign=middle;whiteSpace=wrap;rounded=0;fontSize=10;fontStyle=1" vertex="1" parent="1">
          <mxGeometry x="420" y="655" width="100" height="80" as="geometry" />
        </mxCell>

        <mxCell id="us-msk" value="" style="shape=cylinder3;whiteSpace=wrap;html=1;boundedLbl=1;backgroundOutline=1;size=15;fillColor=#d5e8d4;strokeColor=#82b366;strokeWidth=2;" vertex="1" parent="1">
          <mxGeometry x="560" y="545" width="80" height="100" as="geometry" />
        </mxCell>
        <mxCell id="us-msk-label" value="MSK&#xa;(Kafka)&#xa;&#xa;3 brokers&#xa;25 partitions" style="text;html=1;strokeColor=none;fillColor=none;align=center;verticalAlign=middle;whiteSpace=wrap;rounded=0;fontSize=10;fontStyle=1" vertex="1" parent="1">
          <mxGeometry x="550" y="655" width="100" height="80" as="geometry" />
        </mxCell>

        <mxCell id="us-dynamodb" value="" style="shape=cylinder3;whiteSpace=wrap;html=1;boundedLbl=1;backgroundOutline=1;size=15;fillColor=#d5e8d4;strokeColor=#82b366;strokeWidth=2;" vertex="1" parent="1">
          <mxGeometry x="690" y="545" width="80" height="100" as="geometry" />
        </mxCell>
        <mxCell id="us-dynamodb-label" value="DynamoDB&#xa;&#xa;Rules config&#xa;Merchant data" style="text;html=1;strokeColor=none;fillColor=none;align=center;verticalAlign=middle;whiteSpace=wrap;rounded=0;fontSize=10;fontStyle=1" vertex="1" parent="1">
          <mxGeometry x="680" y="655" width="100" height="80" as="geometry" />
        </mxCell>

        <mxCell id="us-s3" value="" style="shape=cylinder3;whiteSpace=wrap;html=1;boundedLbl=1;backgroundOutline=1;size=15;fillColor=#d5e8d4;strokeColor=#82b366;strokeWidth=2;" vertex="1" parent="1">
          <mxGeometry x="820" y="545" width="80" height="100" as="geometry" />
        </mxCell>
        <mxCell id="us-s3-label" value="S3&#xa;&#xa;Analytics data&#xa;Parquet files" style="text;html=1;strokeColor=none;fillColor=none;align=center;verticalAlign=middle;whiteSpace=wrap;rounded=0;fontSize=10;fontStyle=1" vertex="1" parent="1">
          <mxGeometry x="810" y="655" width="100" height="80" as="geometry" />
        </mxCell>

        <mxCell id="us-kms" value="AWS KMS&#xa;&#xa;Regional Master Keys&#xa;DEK encryption&#xa;&#xa;us-east-2 only" style="rounded=1;whiteSpace=wrap;html=1;fillColor=#fff2cc;strokeColor=#d6b656;verticalAlign=top;fontSize=10;fontStyle=1;strokeWidth=2;" vertex="1" parent="1">
          <mxGeometry x="400" y="760" width="160" height="80" as="geometry" />
        </mxCell>

        <mxCell id="us-secrets" value="Secrets Manager&#xa;&#xa;API keys&#xa;Credentials&#xa;&#xa;us-east-2 only" style="rounded=1;whiteSpace=wrap;html=1;fillColor=#fff2cc;strokeColor=#d6b656;verticalAlign=top;fontSize=10;fontStyle=1;strokeWidth=2;" vertex="1" parent="1">
          <mxGeometry x="580" y="760" width="160" height="80" as="geometry" />
        </mxCell>

        <mxCell id="us-cloudwatch" value="CloudWatch&#xa;&#xa;Logs &amp; Metrics&#xa;Alarms&#xa;&#xa;us-east-2 only" style="rounded=1;whiteSpace=wrap;html=1;fillColor=#fff2cc;strokeColor=#d6b656;verticalAlign=top;fontSize=10;fontStyle=1;strokeWidth=2;" vertex="1" parent="1">
          <mxGeometry x="760" y="760" width="160" height="80" as="geometry" />
        </mxCell>

        <mxCell id="uk-region-box" value="" style="rounded=1;whiteSpace=wrap;html=1;fillColor=#f8cecc;strokeColor=#b85450;strokeWidth=4;opacity=20;" vertex="1" parent="1">
          <mxGeometry x="980" y="130" width="560" height="730" as="geometry" />
        </mxCell>
        
        <mxCell id="uk-region-label" value="UK-LONDON REGION (eu-west-2)" style="text;html=1;strokeColor=none;fillColor=none;align=center;verticalAlign=middle;whiteSpace=wrap;rounded=0;fontSize=18;fontStyle=1;fontColor=#b85450;" vertex="1" parent="1">
          <mxGeometry x="1090" y="140" width="340" height="30" as="geometry" />
        </mxCell>

        <mxCell id="uk-az1-box" value="" style="rounded=1;whiteSpace=wrap;html=1;fillColor=#ffe6cc;strokeColor=#d79b00;strokeWidth=2;dashed=1;" vertex="1" parent="1">
          <mxGeometry x="1000" y="200" width="160" height="280" as="geometry" />
        </mxCell>
        <mxCell id="uk-az1-label" value="AZ-1 (eu-west-2a)" style="text;html=1;strokeColor=none;fillColor=none;align=center;verticalAlign=middle;whiteSpace=wrap;rounded=0;fontSize=12;fontStyle=1" vertex="1" parent="1">
          <mxGeometry x="1010" y="210" width="140" height="20" as="geometry" />
        </mxCell>

        <mxCell id="uk-az2-box" value="" style="rounded=1;whiteSpace=wrap;html=1;fillColor=#ffe6cc;strokeColor=#d79b00;strokeWidth=2;dashed=1;" vertex="1" parent="1">
          <mxGeometry x="1180" y="200" width="160" height="280" as="geometry" />
        </mxCell>
        <mxCell id="uk-az2-label" value="AZ-2 (eu-west-2b)" style="text;html=1;strokeColor=none;fillColor=none;align=center;verticalAlign=middle;whiteSpace=wrap;rounded=0;fontSize=12;fontStyle=1" vertex="1" parent="1">
          <mxGeometry x="1190" y="210" width="140" height="20" as="geometry" />
        </mxCell>

        <mxCell id="uk-az3-box" value="" style="rounded=1;whiteSpace=wrap;html=1;fillColor=#ffe6cc;strokeColor=#d79b00;strokeWidth=2;dashed=1;" vertex="1" parent="1">
          <mxGeometry x="1360" y="200" width="160" height="280" as="geometry" />
        </mxCell>
        <mxCell id="uk-az3-label" value="AZ-3 (eu-west-2c)" style="text;html=1;strokeColor=none;fillColor=none;align=center;verticalAlign=middle;whiteSpace=wrap;rounded=0;fontSize=12;fontStyle=1" vertex="1" parent="1">
          <mxGeometry x="1370" y="210" width="140" height="20" as="geometry" />
        </mxCell>

        <mxCell id="uk-eks-az1" value="EKS Cluster&#xa;&#xa;Fraud Router: 20&#xa;Adapters: 20&#xa;Rules: 7&#xa;BIN: 3&#xa;Tokenization: 7&#xa;Issuer Data: 3" style="rounded=1;whiteSpace=wrap;html=1;fillColor=#dae8fc;strokeColor=#6c8ebf;verticalAlign=top;fontSize=10;fontStyle=1;strokeWidth=2;" vertex="1" parent="1">
          <mxGeometry x="1015" y="240" width="130" height="150" as="geometry" />
        </mxCell>

        <mxCell id="uk-eks-az2" value="EKS Cluster&#xa;&#xa;Fraud Router: 20&#xa;Adapters: 20&#xa;Rules: 7&#xa;BIN: 3&#xa;Tokenization: 7&#xa;Issuer Data: 3" style="rounded=1;whiteSpace=wrap;html=1;fillColor=#dae8fc;strokeColor=#6c8ebf;verticalAlign=top;fontSize=10;fontStyle=1;strokeWidth=2;" vertex="1" parent="1">
          <mxGeometry x="1195" y="240" width="130" height="150" as="geometry" />
        </mxCell>

        <mxCell id="uk-eks-az3" value="EKS Cluster&#xa;&#xa;Fraud Router: 20&#xa;Adapters: 20&#xa;Rules: 7&#xa;BIN: 3&#xa;Tokenization: 7&#xa;Issuer Data: 3" style="rounded=1;whiteSpace=wrap;html=1;fillColor=#dae8fc;strokeColor=#6c8ebf;verticalAlign=top;fontSize=10;fontStyle=1;strokeWidth=2;" vertex="1" parent="1">
          <mxGeometry x="1375" y="240" width="130" height="150" as="geometry" />
        </mxCell>

        <mxCell id="uk-redis-az1" value="ElastiCache&#xa;Redis" style="rounded=1;whiteSpace=wrap;html=1;fillColor=#dae8fc;strokeColor=#6c8ebf;fontSize=10;fontStyle=1;strokeWidth=2;" vertex="1" parent="1">
          <mxGeometry x="1015" y="410" width="130" height="50" as="geometry" />
        </mxCell>

        <mxCell id="uk-redis-az2" value="ElastiCache&#xa;Redis" style="rounded=1;whiteSpace=wrap;html=1;fillColor=#dae8fc;strokeColor=#6c8ebf;fontSize=10;fontStyle=1;strokeWidth=2;" vertex="1" parent="1">
          <mxGeometry x="1195" y="410" width="130" height="50" as="geometry" />
        </mxCell>

        <mxCell id="uk-redis-az3" value="ElastiCache&#xa;Redis" style="rounded=1;whiteSpace=wrap;html=1;fillColor=#dae8fc;strokeColor=#6c8ebf;fontSize=10;fontStyle=1;strokeWidth=2;" vertex="1" parent="1">
          <mxGeometry x="1375" y="410" width="130" height="50" as="geometry" />
        </mxCell>

        <mxCell id="uk-data-layer-label" value="Regional Data Stores" style="text;html=1;strokeColor=none;fillColor=none;align=center;verticalAlign=middle;whiteSpace=wrap;rounded=0;fontSize=14;fontStyle=1;fontColor=#006600;" vertex="1" parent="1">
          <mxGeometry x="1120" y="500" width="280" height="30" as="geometry" />
        </mxCell>

        <mxCell id="uk-aurora" value="" style="shape=cylinder3;whiteSpace=wrap;html=1;boundedLbl=1;backgroundOutline=1;size=15;fillColor=#d5e8d4;strokeColor=#82b366;strokeWidth=2;" vertex="1" parent="1">
          <mxGeometry x="1030" y="545" width="80" height="100" as="geometry" />
        </mxCell>
        <mxCell id="uk-aurora-label" value="Aurora&#xa;PostgreSQL&#xa;&#xa;Multi-AZ&#xa;Writer + Reader" style="text;html=1;strokeColor=none;fillColor=none;align=center;verticalAlign=middle;whiteSpace=wrap;rounded=0;fontSize=10;fontStyle=1" vertex="1" parent="1">
          <mxGeometry x="1020" y="655" width="100" height="80" as="geometry" />
        </mxCell>

        <mxCell id="uk-msk" value="" style="shape=cylinder3;whiteSpace=wrap;html=1;boundedLbl=1;backgroundOutline=1;size=15;fillColor=#d5e8d4;strokeColor=#82b366;strokeWidth=2;" vertex="1" parent="1">
          <mxGeometry x="1160" y="545" width="80" height="100" as="geometry" />
        </mxCell>
        <mxCell id="uk-msk-label" value="MSK&#xa;(Kafka)&#xa;&#xa;3 brokers&#xa;25 partitions" style="text;html=1;strokeColor=none;fillColor=none;align=center;verticalAlign=middle;whiteSpace=wrap;rounded=0;fontSize=10;fontStyle=1" vertex="1" parent="1">
          <mxGeometry x="1150" y="655" width="100" height="80" as="geometry" />
        </mxCell>

        <mxCell id="uk-dynamodb" value="" style="shape=cylinder3;whiteSpace=wrap;html=1;boundedLbl=1;backgroundOutline=1;size=15;fillColor=#d5e8d4;strokeColor=#82b366;strokeWidth=2;" vertex="1" parent="1">
          <mxGeometry x="1290" y="545" width="80" height="100" as="geometry" />
        </mxCell>
        <mxCell id="uk-dynamodb-label" value="DynamoDB&#xa;&#xa;Rules config&#xa;Merchant data" style="text;html=1;strokeColor=none;fillColor=none;align=center;verticalAlign=middle;whiteSpace=wrap;rounded=0;fontSize=10;fontStyle=1" vertex="1" parent="1">
          <mxGeometry x="1280" y="655" width="100" height="80" as="geometry" />
        </mxCell>

        <mxCell id="uk-s3" value="" style="shape=cylinder3;whiteSpace=wrap;html=1;boundedLbl=1;backgroundOutline=1;size=15;fillColor=#d5e8d4;strokeColor=#82b366;strokeWidth=2;" vertex="1" parent="1">
          <mxGeometry x="1420" y="545" width="80" height="100" as="geometry" />
        </mxCell>
        <mxCell id="uk-s3-label" value="S3&#xa;&#xa;Analytics data&#xa;Parquet files" style="text;html=1;strokeColor=none;fillColor=none;align=center;verticalAlign=middle;whiteSpace=wrap;rounded=0;fontSize=10;fontStyle=1" vertex="1" parent="1">
          <mxGeometry x="1410" y="655" width="100" height="80" as="geometry" />
        </mxCell>

        <mxCell id="uk-kms" value="AWS KMS&#xa;&#xa;Regional Master Keys&#xa;DEK encryption&#xa;&#xa;eu-west-2 only" style="rounded=1;whiteSpace=wrap;html=1;fillColor=#fff2cc;strokeColor=#d6b656;verticalAlign=top;fontSize=10;fontStyle=1;strokeWidth=2;" vertex="1" parent="1">
          <mxGeometry x="1000" y="760" width="160" height="80" as="geometry" />
        </mxCell>

        <mxCell id="uk-secrets" value="Secrets Manager&#xa;&#xa;API keys&#xa;Credentials&#xa;&#xa;eu-west-2 only" style="rounded=1;whiteSpace=wrap;html=1;fillColor=#fff2cc;strokeColor=#d6b656;verticalAlign=top;fontSize=10;fontStyle=1;strokeWidth=2;" vertex="1" parent="1">
          <mxGeometry x="1180" y="760" width="160" height="80" as="geometry" />
        </mxCell>

        <mxCell id="uk-cloudwatch" value="CloudWatch&#xa;&#xa;Logs &amp; Metrics&#xa;Alarms&#xa;&#xa;eu-west-2 only" style="rounded=1;whiteSpace=wrap;html=1;fillColor=#fff2cc;strokeColor=#d6b656;verticalAlign=top;fontSize=10;fontStyle=1;strokeWidth=2;" vertex="1" parent="1">
          <mxGeometry x="1360" y="760" width="160" height="80" as="geometry" />
        </mxCell>

        <mxCell id="no-replication-barrier" value="" style="shape=trapezoid;perimeter=trapezoidPerimeter;whiteSpace=wrap;html=1;fixedSize=1;fillColor=#f5f5f5;strokeColor=#CC0000;strokeWidth=6;rotation=-90;size=30;" vertex="1" parent="1">
          <mxGeometry x="920" y="380" width="80" height="240" as="geometry" />
        </mxCell>

        <mxCell id="no-replication-label1" value="NO" style="text;html=1;strokeColor=none;fillColor=none;align=center;verticalAlign=middle;whiteSpace=wrap;rounded=0;fontSize=24;fontStyle=1;fontColor=#CC0000;rotation=-90;" vertex="1" parent="1">
          <mxGeometry x="925" y="420" width="70" height="40" as="geometry" />
        </mxCell>

        <mxCell id="no-replication-label2" value="CROSS-REGION" style="text;html=1;strokeColor=none;fillColor=none;align=center;verticalAlign=middle;whiteSpace=wrap;rounded=0;fontSize=16;fontStyle=1;fontColor=#CC0000;rotation=-90;" vertex="1" parent="1">
          <mxGeometry x="925" y="460" width="70" height="40" as="geometry" />
        </mxCell>

        <mxCell id="no-replication-label3" value="REPLICATION" style="text;html=1;strokeColor=none;fillColor=none;align=center;verticalAlign=middle;whiteSpace=wrap;rounded=0;fontSize=16;fontStyle=1;fontColor=#CC0000;rotation=-90;" vertex="1" parent="1">
          <mxGeometry x="925" y="500" width="70" height="40" as="geometry" />
        </mxCell>

        <mxCell id="comparison-box" value="" style="rounded=1;whiteSpace=wrap;html=1;fillColor=#f5f5f5;strokeColor=#666666;dashed=1;" vertex="1" parent="1">
          <mxGeometry x="40" y="390" width="280" height="470" as="geometry" />
        </mxCell>
        <mxCell id="comparison-title" value="Regional Configuration" style="text;html=1;strokeColor=none;fillColor=none;align=left;verticalAlign=middle;whiteSpace=wrap;rounded=0;fontSize=14;fontStyle=1" vertex="1" parent="1">
          <mxGeometry x="50" y="400" width="200" height="20" as="geometry" />
        </mxCell>
        
        <mxCell id="comp-throughput" value="Throughput per Region" style="text;html=1;strokeColor=none;fillColor=none;align=left;verticalAlign=middle;whiteSpace=wrap;rounded=0;fontSize=11;fontStyle=1" vertex="1" parent="1">
          <mxGeometry x="55" y="435" width="200" height="20" as="geometry" />
        </mxCell>
        <mxCell id="comp-throughput-val" value="• Sync: 300 TPS&#xa;• Async: 1,000 TPS&#xa;• Total: 1,300 TPS" style="text;html=1;strokeColor=none;fillColor=none;align=left;verticalAlign=top;whiteSpace=wrap;rounded=0;fontSize=10;" vertex="1" parent="1">
          <mxGeometry x="60" y="455" width="200" height="50" as="geometry" />
        </mxCell>

        <mxCell id="comp-pods" value="Pod Distribution" style="text;html=1;strokeColor=none;fillColor=none;align=left;verticalAlign=middle;whiteSpace=wrap;rounded=0;fontSize=11;fontStyle=1" vertex="1" parent="1">
          <mxGeometry x="55" y="515" width="200" height="20" as="geometry" />
        </mxCell>
        <mxCell id="comp-pods-val" value="• Fraud Router: 60 (20/AZ)&#xa;• FraudSight: 30 (10/AZ)&#xa;• GuaranteedPayment: 30 (10/AZ)&#xa;• Rules Service: 20 (7/AZ)&#xa;• BIN Lookup: 10 (3/AZ)&#xa;• Tokenization: 20 (7/AZ)&#xa;• Issuer Data: 8 (3/AZ)" style="text;html=1;strokeColor=none;fillColor=none;align=left;verticalAlign=top;whiteSpace=wrap;rounded=0;fontSize=9;" vertex="1" parent="1">
          <mxGeometry x="60" y="535" width="200" height="105" as="geometry" />
        </mxCell>

        <mxCell id="comp-data" value="Data Stores" style="text;html=1;strokeColor=none;fillColor=none;align=left;verticalAlign=middle;whiteSpace=wrap;rounded=0;fontSize=11;fontStyle=1" vertex="1" parent="1">
          <mxGeometry x="55" y="650" width="200" height="20" as="geometry" />
        </mxCell>
        <mxCell id="comp-data-val" value="• Aurora: Multi-AZ (1W + 1R)&#xa;• MSK: 3 brokers, 25 partitions&#xa;• DynamoDB: Regional table&#xa;• ElastiCache: 3-node cluster&#xa;• S3: Regional bucket" style="text;html=1;strokeColor=none;fillColor=none;align=left;verticalAlign=top;whiteSpace=wrap;rounded=0;fontSize=9;" vertex="1" parent="1">
          <mxGeometry x="60" y="670" width="200" height="80" as="geometry" />
        </mxCell>

        <mxCell id="comp-isolation" value="Isolation Guarantees" style="text;html=1;strokeColor=none;fillColor=none;align=left;verticalAlign=middle;whiteSpace=wrap;rounded=0;fontSize=11;fontStyle=1" vertex="1" parent="1">
          <mxGeometry x="55" y="760" width="200" height="20" as="geometry" />
        </mxCell>
        <mxCell id="comp-isolation-val" value="• Zero cross-region traffic&#xa;• Independent KMS keys&#xa;• Separate DEK rotation&#xa;• Regional failure isolation&#xa;• UK GDPR compliance" style="text;html=1;strokeColor=none;fillColor=none;align=left;verticalAlign=top;whiteSpace=wrap;rounded=0;fontSize=9;" vertex="1" parent="1">
          <mxGeometry x="60" y="780" width="200" height="70" as="geometry" />
        </mxCell>

      </root>
    </mxGraphModel>
  </diagram>
</mxfile>
